<?xml version="1.0" encoding="UTF-8"?>
<svg id="Layer_1" data-name="Layer 1" xmlns="http://www.w3.org/2000/svg" viewBox="0 0 1890 1417">
  <path d="M0,708.5v708.5H1890V0H0V708.5Zm1364-164.3c0,4.2-.4,4.7-20.5,25.3-11.3,11.5-20.7,21.6-21,22.5-.3,.8-2,2.6-3.8,3.9-1.7,1.3-5.4,5.2-8.2,8.7-2.7,3.4-6,6.8-7.1,7.4-1.2,.7-3.4,3-4.8,5.2q-2.6,4-2.6,25.3v21.3l4.8,3.1c2.7,1.7,5.2,3.1,5.5,3.1,.4,0,2.3,1.8,4.3,4s4.1,4,4.7,4c.5,0,.3-.8-.6-1.8-2.3-2.5-2.1-3.5,.3-2.2s2.6,5.2,.5,7.3c-1.1,1.2-5.3,1.5-21.2,1.7-10.9,.1-21.1,.2-22.8,.2-4.7,.1-14.5-.9-15.2-1.6-.4-.3-1.7-.6-3-.6-3.1,0-8.4-2.7-10.5-5.4-1.2-1.4-1.8-3.9-1.8-7.2,0-6.5,4-13.1,13.3-21.8,3.4-3.2,5.3-5.5,4.3-5.2-1,.4-4.8,1.1-8.4,1.6-3.5,.5-6.5,1-6.6,1.2-2.2,3.8-13.8,16.5-18.9,20.9-13.7,11.5-26.5,16.4-41.1,15.7-10.1-.4-16.1-2.9-20-8.1-3.2-4.4-2.9-13.8,.7-19.9,6.2-10.6,18.2-19.5,30.1-22.5,7.7-1.9,12.6-.9,20.1,3.8,4.1,2.6,4.5,3.2,4.5,6.7,0,7.3-8,16.3-17.7,19.8-5.1,1.8-13.2,1.7-18.9-.2-2.5-.8-4.8-1.3-5.2-1-.3,.3-.7,3-1,6-.4,4.8-.1,5.8,2.1,8,3.4,3.4,7.1,4.1,13.7,2.8,12.5-2.6,28.2-13.7,38.9-27.5l4.2-5.5-2.6-2.6c-1.4-1.4-2.5-3-2.5-3.6,0-3.7,6.9-11.4,12.7-14.4,6.8-3.4,10.3-1.1,8.6,5.7-.6,2.3-1.4,5.1-1.8,6.1-.8,1.7-.5,1.8,3.1,1.2,2.1-.4,6.6-1.9,10-3.2,7.9-3.1,9.7-3,12.8,.7,4.6,5.4,3.7,7.9-5.3,15.4-15.3,12.9-20.8,23-14.6,27.1,2.2,1.4,3.2,1.5,6.4,.5,2.1-.6,10.2-1.1,18-1.1s14.1-.4,14.1-.8c0-.5-1.8-2.3-4-4.1l-4-3.2,.1-22.2c.1-30.4-.2-29,9.4-39.5,4.4-4.8,10.5-11.2,13.5-14.2s10.4-10.7,16.4-17l10.8-11.5-41.8-.5c-23.1-.3-43.4-.3-45.3-.1l-3.4,.4,8.6,8.5c4.8,4.6,8.7,8.7,8.7,8.9,0,.3,4.6,5.4,10.3,11.3l10.2,10.8-.3,4.6c-.6,7.6-2.6,7.6-10.5-.1-3.7-3.6-6.7-6.8-6.7-7.2-.1-.3-3.6-4.3-7.8-8.8-36-38.2-40.2-43.1-40.2-46.7v-3.6h146v4.2Zm-193.6,58c4,5.7,1.4,10.9-17,33.3-18.7,22.8-24.9,31.2-26.8,35.7-1.4,3.2-1.4,3.7-.1,4.8,3.9,3.3,15.9-2.9,23.6-12.1,4.4-5.2,6.4-6.1,7.4-3,1.6,5.1-5.5,13.3-15.5,18-10.2,4.8-25.3,3-28.2-3.4l-1.1-2.4-2.8,2c-8.8,6.3-22,8.3-28.6,4.4s-7.8-11.7-3.1-20.8c4.4-8.9,19.3-20.8,32.5-26.3,10.8-4.4,24.2-2.5,24.3,3.4,.1,1.2,.7,.8,2.3-1.3,5-6.9,26.9-32.5,28.5-33.4,2.4-1.5,2.9-1.4,4.6,1.1Zm-553,.9c8.3,4.3,12.7,13.6,9.3,19.5-2,3.5-18.4,20.4-19.8,20.4-2.5,0-5.9-4.3-5.9-7.4,0-3.9,2.2-7.4,9.9-15.9,3.4-3.8,6-7.4,5.8-8-.7-2.2-9.9-1.1-18.2,2.2-11.4,4.4-20,9.7-27.2,16.6-11.3,10.9-8.8,14.6,17,25,12.6,5.1,15.4,7.5,14.3,11.9-1,4-5.3,8.3-11.3,11.2-8,3.9-24.1,4.6-36.4,1.5-12.9-3.2-29.9-12.6-29.9-16.5,0-1.9,6.1-2.6,12.3-1.6,2.9,.4,8.8,2.6,13.2,4.8s10.3,4.8,13,5.7c13.9,4.7,32,1.4,24.7-4.5-1.1-1-6.6-3.6-12.1-6-19.6-8.2-27.1-14.3-27.1-21.9,.1-10.2,10-20.6,28.5-29.8,13.5-6.7,23.6-9.5,32.4-8.7,2.9,.2,6.3,.9,7.5,1.5Zm311.4,7.2c1.3,2.6,.9,5.6-1.3,10.9-.6,1.5-.2,1.8,2.3,1.8,3.5,0,8.9,4,7.8,5.8-.4,.8-3.7,1.2-8.6,1.2h-7.9l-7.1,8.2c-8.7,10-17.1,21.1-19.4,25.5-3.5,6.8-1.1,13.3,4.8,13.3,5.4-.1,11.7-3.8,19.3-11.5,7.1-7.2,9.7-8.8,10.5-6.3,.2,.6,1.7-1.4,3.2-4.5,3.3-6.8,12.4-16.2,19.3-19.9,6.7-3.7,16.6-6.2,21.1-5.3,4.6,.9,10.8,4,13.8,7,6,6-.4,17.2-13.1,23.1-6,2.9-17.5,3.3-23.2,.9-1.9-.8-3.7-1.5-3.8-1.5s-.8,2-1.4,4.4c-1.3,5.3-.4,8.4,3.5,11.5,7,5.5,25.5,0,38.2-11.4,5.2-4.7,7.8-5.6,8.4-3,.2,.9,3-2,7-7.2,9.6-12.6,20.6-24.3,22.8-24.3,2.5,0,4,2.9,4,7.4,0,2,.2,3.6,.5,3.6,.2,0,2.6-1.4,5.2-3,5.9-3.8,14.4-7,18.4-7,3.6,0,8.4,2.3,9.3,4.5,.3,.9,.6,3.2,.6,5.1,0,2.8-1.4,5.1-7.8,12.6-10,12-12.1,15-12.8,18.7-.8,4,.9,6.1,5,6.1s10.7-4.2,18.3-12c6.2-6.4,9.3-7.4,9.3-3,0,5.5-6.5,12.5-15.5,16.7-5.2,2.4-7.2,2.8-15.2,2.8s-9.6-.3-12-2.1c-8-6-4.7-16.1,11.2-34.4,3.5-4.1,6.1-7.6,5.6-7.8-1.8-.6-12,4.2-19.8,9.4-8.9,6-15.5,12.8-24.8,26.2-3.3,4.7-6.5,8.7-7.2,8.9-.7,.3-2.4-.7-3.9-2.2-2.2-2.2-2.6-3.3-2.1-6.5l.5-3.8-5.8,3.7c-9.2,6-18.6,8.6-30.5,8.6-8.9,0-10.6-.3-15.6-2.7-6.2-3.1-9.9-8.2-9.9-13.9l-.1-3.4-1.3,3c-3.3,7.3-14.8,14.7-25.5,16.6-4.8,.9-7,.8-11.3-.5-7.3-2.1-10-5.2-10.6-11.9-.5-6.8,1.6-11.2,12.7-26.1,4.5-5.9,8.1-11,8.1-11.1,0-.2-1.8-.6-3.9-1-5-.8-7.6-2.7-6.8-4.9,.5-1.3,2.1-1.6,8.8-1.6h8.2l8-8.5c4.8-5.2,8.6-8.5,9.6-8.3,.9,.2,2.2,1.6,2.9,3.1Zm-86.4,12.9c1,1.6,.2,6.5-1.9,12-.6,1.5-.2,1.6,5.6,.2,3.4-.8,8.2-2.3,10.7-3.4,2.4-1.1,5.2-2,6.1-2,2.3,0,6.8,4.9,7.6,8.3,.7,2.5,.1,3.4-5.6,8.5-14.3,12.8-19,18.7-19.1,24.4-.3,10.1,14.9,5.9,24.4-6.8,4.6-5.9,7.2-6.4,7.6-1.4,.3,4.7-2.7,9.3-8.5,13.1-12.2,7.6-26.7,7.8-33.3,.2-6.1-6.9-2.7-16.8,9.6-28.1l7.4-6.9-6.2,1.3c-3.5,.8-7.2,1.4-8.3,1.4-1.4,0-3.1,1.9-5.5,6.2-5,8.9-19.8,23.6-27.5,27.3-10.9,5.2-25.6,4.5-29.2-1.3-.9-1.5-1.8-2.8-1.9-3s-2.3,1.1-5,2.8c-5.9,3.7-10.3,5-17.2,5-10.2,0-15.2-4.3-15.2-13.2,.1-6.3,3.2-12.3,10.3-19.2,12.7-12.5,25.6-19,37.6-19.1,7.1,0,7.5,.1,9.9,3.1l2.5,3.1,3-3.3c3.9-4.5,7.3-4.6,9.2-.1,1,2.3,1.1,4.5,.5,7-.9,4.2-.6,3.7-11.2,16.4-10.7,12.8-13,17.9-9.2,20.1,6.5,3.6,23.1-8.6,33.6-24.6l4.9-7.6-2.5-1.9c-4.1-3-3.6-7.7,1.4-13.1,6.5-7,12.9-9.3,15.4-5.4Zm-187.6,8.8c.7,1.4,1.1,4,.8,5.8l-.5,3.2,4.2-2.6c12.3-7.6,23.8-10.5,27.7-6.9,1.1,1,2.2,3.3,2.6,5.1,.3,1.9,.8,3.4,.9,3.4,.2,0,3.8-1.8,8-4,4.3-2.1,10.2-4.5,13.1-5.1,4.6-1,5.6-1,7.8,.5,6.5,4.2,4.3,11-7.8,24.9-10.2,11.6-12,15.5-9,18.8,4,4.4,12.3,.9,21.8-9.2,3.6-3.8,7.3-6.9,8.1-6.9,4.3,0,2.2,8.3-3.3,13.1-2,1.8-6.6,4.6-10.2,6.3-5.7,2.7-7.5,3.1-15,3.1-13-.1-18.8-4.2-17.7-12.6,.7-5,3.7-9.4,14.5-21.1,4.6-5.1,7.9-9.4,7.3-9.6-1.3-.4-11.8,4.8-18,9.1-7.3,4.9-19.8,17.5-26.7,26.9-3.6,4.9-6.8,8.8-7.3,8.8s-2-.9-3.5-2.1c-2.1-1.6-2.6-2.9-2.6-6.2,0-5.8,3.8-11.9,15.6-25.2,10.6-11.9,10.8-13.8,1.2-8.9-13,6.5-25.8,18.2-36.2,33.1-3.2,4.6-6.1,8.3-6.5,8.3-.5,0-2-.9-3.5-2.1-6-4.7-1.9-14.3,14.8-34.9,13.6-16.8,16.4-18.7,19.4-13Z"/>
  <path d="M1235,550.5l2.3,2.5h33.2c18.2,0,33.4-.3,33.8-.6,.8-.9,11.7-1,11.7-.2,0,.5,6.5,.8,14.4,.8,12.9,0,14.6-.2,16.7-2l2.4-2-21.7,.3c-11.9,.1-21.4-.1-21.1-.6,.2-.4-16.3-.7-36.8-.7h-37.2l2.3,2.5Z"/>
  <path d="M1198,638.7c-2.9,1.6-8.3,5.7-11.9,9.2l-6.5,6.5,2.9,.8c5.3,1.4,11.2-1,18.2-7.5,4.2-3.9,7.3-8.4,7.3-10.7,0-1.8-4.5-1.1-10,1.7Z"/>
  <path d="M1118.6,640c-16.3,8.5-31.1,25.7-29.1,33.7,.6,2.4,.9,2.5,5.1,2,8.8-1,21-12.1,30.7-28,6.2-10.2,3.7-13.2-6.7-7.7Z"/>
  <path d="M968,638.7c-6.8,3.4-19.7,15.3-17.8,16.4,5.4,3.5,19.2-3.6,25.5-13.2,4.2-6.4,1.2-7.7-7.7-3.2Z"/>
  <path d="M779.5,639.7c-16,8.2-32,27.7-28.4,34.4,3.3,6.3,19.6-4.1,31.8-20.4,4.5-6,8.5-14.2,7.6-15.7-1.1-1.7-5.8-1-11,1.7Z"/>
</svg>